<?xml version="1.0" standalone="no"?>
<!DOCTYPE svg PUBLIC "-//W3C//DTD SVG 20010904//EN"
 "http://www.w3.org/TR/2001/REC-SVG-20010904/DTD/svg10.dtd">
<svg version="1.0" xmlns="http://www.w3.org/2000/svg"
 width="1080.000000pt" height="1080.000000pt" viewBox="0 0 1080.000000 1080.000000"
 preserveAspectRatio="xMidYMid meet">

<g transform="translate(0.000000,1080.000000) scale(0.100000,-0.100000)"
fill="#000000" stroke="none">
<path d="M0 5400 l0 -5400 5400 0 5400 0 0 5400 0 5400 -5400 0 -5400 0 0
-5400z m4293 4400 c23 -26 27 -39 27 -91 0 -39 -6 -71 -17 -90 -16 -27 -16
-29 2 -49 17 -18 20 -36 19 -115 0 -86 -3 -96 -27 -129 -32 -41 -60 -49 -162
-44 l-70 3 -3 272 c-3 313 -16 282 118 277 80 -3 86 -5 113 -34z m294 8 c40
-37 45 -66 41 -260 -3 -159 -6 -187 -22 -215 -25 -40 -54 -53 -119 -53 -63 0
-90 17 -117 72 -18 37 -20 62 -20 209 0 215 14 253 98 270 53 10 113 0 139
-23z m198 20 c3 -3 11 -36 19 -74 l14 -69 2 55 c2 30 3 62 4 70 1 16 77 32 95
20 8 -4 15 -308 12 -507 l-1 -43 -49 0 c-56 0 -51 -9 -78 125 l-18 90 -5 -105
-5 -105 -55 0 -55 0 -3 272 c-2 253 -1 272 15 275 24 5 102 2 108 -4z m430
-19 c23 -20 47 -115 38 -149 -5 -18 -12 -21 -57 -18 -48 3 -51 4 -54 33 -5 41
-20 59 -38 44 -11 -9 -14 -46 -14 -154 0 -152 4 -175 26 -175 33 0 38 86 7
122 -9 9 -13 31 -11 55 l3 38 62 3 c51 2 63 0 71 -15 11 -19 15 -265 6 -295
-7 -22 -50 -24 -58 -3 -5 14 -9 14 -35 0 -17 -8 -49 -15 -71 -15 -34 0 -48 6
-71 31 -38 41 -41 63 -37 276 l3 182 29 30 c23 24 39 31 80 33 68 5 97 -1 121
-23z m293 23 c8 -1 12 -19 12 -50 0 -27 3 -52 8 -56 8 -9 33 -260 35 -366 l2
-75 -50 0 -50 0 -9 43 c-8 34 -14 42 -32 42 -17 0 -23 -7 -28 -39 -3 -22 -13
-41 -22 -45 -27 -11 -84 -6 -89 7 -5 12 28 410 41 494 6 41 7 42 48 45 40 3
109 3 134 0z m213 -14 c4 -7 11 -41 15 -75 7 -72 23 -84 25 -20 4 104 2 100
34 109 17 4 40 6 52 3 22 -5 22 -8 25 -224 2 -120 1 -244 0 -275 l-4 -56 -49
0 c-53 0 -69 15 -69 64 0 14 -4 28 -10 31 -5 3 -11 18 -12 33 -1 15 -4 -7 -7
-48 l-6 -75 -57 -3 -58 -3 0 274 c0 150 3 276 6 279 10 11 107 -1 115 -14z
m292 10 c16 -12 17 -38 15 -278 l-3 -265 -55 0 -55 0 -3 272 -2 272 37 4 c21
2 41 4 44 5 3 1 13 -4 22 -10z m218 -4 c3 -2 11 -45 18 -96 24 -190 33 -194
50 -26 7 68 14 125 17 127 9 9 154 5 164 -5 7 -7 9 -97 8 -275 l-3 -264 -45 0
-45 0 -5 185 c-4 155 -6 174 -13 120 -10 -85 -33 -226 -44 -270 -8 -33 -12
-35 -52 -38 -24 -2 -48 1 -53 6 -5 5 -17 63 -26 130 -10 67 -23 127 -31 134
-10 11 -12 6 -10 -27 1 -22 2 -86 1 -142 l-2 -103 -50 0 c-33 0 -50 4 -51 13
-1 6 -1 129 0 271 0 200 3 261 13 268 12 7 144 1 159 -8z m514 -45 l0 -54 -47
-3 -48 -3 0 -43 c0 -48 9 -56 66 -56 l34 0 0 -54 0 -55 -47 -3 -48 -3 0 -50 0
-50 55 -5 55 -5 0 -55 0 -55 -115 0 -115 0 -3 269 c-1 169 1 272 8 276 5 3 53
5 107 4 l98 -2 0 -53z m-1986 -1031 c14 -25 14 -29 -5 -55 -15 -20 -33 -29
-60 -33 -31 -4 -39 -10 -44 -30 -3 -14 -14 -26 -23 -28 -15 -3 -17 7 -17 88
l0 91 67 -3 c61 -3 69 -5 82 -30z m209 20 c17 -17 15 -49 -4 -77 -16 -22 -16
-26 -1 -51 9 -15 14 -30 10 -34 -14 -14 -33 -4 -48 24 -21 41 -62 42 -67 3 -2
-17 -9 -28 -18 -28 -12 0 -16 18 -18 88 l-3 87 69 0 c39 0 73 -5 80 -12z m212
3 c0 -11 -35 -21 -72 -21 -21 0 -28 -5 -28 -20 0 -16 7 -20 34 -20 19 0 41 -3
50 -6 28 -11 6 -24 -40 -24 -40 0 -44 -2 -44 -25 0 -24 3 -25 56 -25 40 0 55
-3 52 -12 -6 -17 -125 -23 -144 -7 -15 12 -21 149 -7 162 10 10 143 8 143 -2z
m193 -5 c9 -22 -17 -40 -32 -23 -13 17 -61 10 -61 -8 0 -7 22 -19 49 -26 48
-12 60 -26 61 -66 0 -44 -110 -61 -146 -22 -15 17 -16 22 -4 29 10 6 20 4 31
-6 21 -19 74 -15 74 5 0 15 -14 24 -59 37 -37 11 -51 34 -42 67 6 25 10 27 65
27 42 0 60 -4 64 -14z m207 -2 c0 -12 -9 -15 -42 -12 -38 2 -43 0 -46 -19 -3
-19 2 -22 34 -25 53 -4 57 -28 6 -28 -40 0 -57 -15 -43 -38 3 -6 25 -12 49
-14 68 -5 54 -23 -20 -26 l-68 -3 0 91 0 90 65 0 c53 0 65 -3 65 -16z m135
-21 c14 -21 25 -43 25 -50 0 -7 7 -13 15 -13 11 0 15 12 15 51 0 43 3 50 18
47 14 -3 17 -16 20 -78 1 -41 -2 -81 -7 -89 -10 -15 -61 -8 -61 9 0 16 -51 93
-57 86 -3 -3 -7 -26 -9 -52 -3 -50 -7 -59 -23 -49 -7 3 -11 42 -11 91 0 83 0
84 25 84 17 0 32 -11 50 -37z m292 25 c-2 -7 -12 -13 -23 -13 -37 -1 -44 -14
-44 -86 0 -54 -3 -69 -15 -69 -11 0 -15 17 -17 73 -3 72 -3 72 -35 82 -56 16
-37 25 53 25 64 0 85 -3 81 -12z m177 -3 c7 -19 -21 -32 -35 -18 -14 14 -59 4
-59 -12 0 -8 15 -16 33 -20 70 -15 99 -61 61 -99 -30 -30 -144 -16 -144 18 0
20 27 27 40 10 14 -16 66 -19 75 -4 11 18 -13 37 -55 44 -50 8 -69 36 -45 72
13 20 23 24 69 24 39 0 55 -4 60 -15z m-3420 -555 c16 -8 43 -32 60 -53 l31
-39 3 -389 3 -390 -78 3 -78 3 -3 169 c-1 103 -7 175 -13 183 -9 10 -69 12
-278 10 l-266 -2 -5 -180 -5 -180 -85 0 -85 0 0 365 0 365 25 53 c21 44 33 57
75 77 l50 25 310 -3 c252 -2 315 -5 339 -17z m618 -283 c188 -188 292 -287
299 -280 5 5 10 126 12 294 l2 284 80 0 80 0 3 -385 c3 -428 0 -460 -51 -486
-16 -9 -39 -13 -51 -10 -11 3 -135 119 -274 258 -138 139 -269 270 -290 290
-20 21 -41 36 -47 35 -6 -2 -12 -113 -15 -293 l-5 -289 -77 -3 -78 -3 0 426 0
425 33 20 c59 37 68 31 379 -283z m1466 226 l-3 -78 -170 -3 c-93 -1 -174 -7
-179 -12 -7 -7 -10 -284 -7 -517 l1 -33 180 0 181 0 -3 -82 -3 -83 -438 -3
-438 -2 3 82 3 83 175 5 175 5 3 255 c1 140 0 265 -3 278 -5 22 -7 22 -180 22
l-175 0 0 80 0 80 440 0 441 0 -3 -77z m873 66 c63 -20 77 -31 103 -83 l26
-52 -2 -369 -3 -370 -77 -3 -78 -3 0 349 c0 265 -3 352 -13 366 -10 14 -26 16
-97 14 l-85 -3 -5 -360 c-3 -198 -7 -361 -8 -363 -1 -2 -37 -2 -79 0 l-78 3
-5 364 -5 364 -85 -2 c-46 -1 -90 -7 -97 -13 -10 -8 -13 -91 -13 -364 l0 -354
-80 0 -80 0 0 360 c0 411 3 434 64 486 21 18 50 35 65 37 63 10 600 6 632 -4z
m1124 -69 l0 -75 -350 -3 c-192 -1 -356 -4 -363 -7 -9 -3 -12 -30 -10 -101 l3
-97 330 1 c182 1 344 -2 360 -6 29 -8 30 -10 33 -80 l3 -72 -228 0 c-125 -1
-289 -2 -363 -3 l-135 -2 0 -95 0 -95 349 -3 c237 -1 354 -6 363 -13 13 -12
19 -113 7 -143 -5 -14 -47 -16 -373 -16 -357 1 -367 1 -411 23 -26 13 -57 39
-73 63 l-29 41 -1 319 -1 319 27 42 c28 44 52 62 102 74 17 4 194 6 395 6
l365 -2 0 -75z m993 3 l-3 -78 -354 -2 c-220 -1 -357 -6 -360 -12 -8 -13 -6
-174 2 -188 4 -6 127 -8 336 -5 181 3 341 2 355 -2 25 -6 26 -9 26 -81 l0 -75
-354 0 c-216 0 -357 -4 -361 -10 -9 -15 -14 -165 -6 -179 6 -9 90 -13 362 -14
l354 -2 0 -80 0 -80 -365 -3 c-329 -2 -369 -1 -405 15 -44 19 -69 43 -93 88
-13 26 -15 75 -13 350 l2 320 27 40 c48 70 70 73 490 74 l363 1 -3 -77z m1002
-3 l0 -80 -173 0 c-121 0 -177 -4 -185 -12 -9 -9 -12 -104 -12 -365 l0 -353
-80 0 -80 0 -2 363 -3 362 -175 5 -175 5 -3 78 -3 77 446 0 445 0 0 -80z
m-4402 -1094 c15 -8 40 -29 57 -47 28 -32 30 -40 33 -130 5 -115 -5 -153 -54
-200 l-35 -34 -256 -5 -256 -5 -3 -77 c-4 -69 -2 -79 16 -88 12 -7 116 -10
287 -9 148 1 276 1 286 0 16 -1 18 -9 15 -63 l-3 -63 -367 -3 -368 -2 0 165
c0 174 5 201 48 237 44 36 60 38 307 38 l246 0 -3 83 -3 82 -297 3 -298 2 0
65 0 65 310 0 c247 0 317 -3 338 -14z m842 -3 c36 -24 43 -33 63 -76 15 -33
17 -70 17 -276 0 -243 -4 -277 -43 -321 -36 -42 -53 -45 -320 -48 l-258 -3
-45 26 c-73 43 -75 55 -72 358 4 374 -14 356 373 357 230 0 263 -2 285 -17z
m845 -11 c51 -40 64 -77 65 -177 0 -111 -11 -153 -51 -191 l-30 -29 -252 -3
c-157 -2 -256 -7 -264 -14 -8 -7 -13 -36 -13 -79 0 -55 3 -70 18 -78 10 -5
133 -10 282 -10 146 0 275 -1 288 -1 22 0 23 -3 20 -62 l-3 -63 -359 -3 c-281
-2 -361 1 -368 10 -11 18 -1 333 11 356 5 10 27 31 49 46 l39 27 241 -3 c280
-3 265 -9 260 102 l-3 65 -297 3 -298 2 0 66 0 65 318 -3 c315 -3 318 -3 347
-26z m833 0 c17 -13 32 -30 32 -38 0 -8 4 -14 9 -14 14 0 22 -45 22 -142 1
-85 0 -92 -25 -115 -14 -13 -26 -26 -26 -29 0 -4 11 -19 25 -36 23 -27 25 -38
25 -127 0 -88 -2 -101 -27 -139 -43 -66 -50 -67 -398 -67 l-310 0 -3 63 c-3
62 -3 62 25 62 15 0 132 0 258 0 127 1 252 3 278 7 l48 6 -3 81 -3 81 -303 3
-303 2 3 63 3 62 300 5 300 5 3 78 c2 42 2 78 0 79 -2 1 -138 5 -303 8 l-300
5 -3 49 c-5 83 -31 77 325 74 314 -3 318 -3 351 -26z m-4481 -1177 c2 -6 -10
-16 -26 -22 -29 -10 -30 -14 -33 -79 -2 -53 -6 -69 -18 -69 -12 0 -16 17 -20
75 -5 73 -6 75 -32 78 -28 3 -35 12 -21 26 11 11 146 2 150 -9z m87 -1 c3 -9
6 -27 6 -40 0 -21 5 -24 34 -24 33 0 35 2 38 38 2 25 8 37 18 37 12 0 15 -17
15 -89 0 -63 -4 -91 -12 -93 -13 -5 -17 2 -27 50 -5 22 -12 27 -36 27 -26 0
-29 -3 -32 -37 -2 -30 -7 -38 -23 -38 -25 0 -29 20 -20 112 5 50 11 73 20 73
7 0 16 -7 19 -16z m316 1 c0 -11 -12 -15 -44 -15 -31 0 -46 -5 -50 -16 -11
-30 -6 -34 44 -34 38 0 50 -4 50 -15 0 -11 -12 -15 -44 -15 -47 0 -60 -8 -50
-34 4 -10 22 -16 57 -18 78 -5 57 -23 -25 -23 l-73 0 -3 79 c-2 44 -1 85 2 93
8 20 136 18 136 -2z m198 -46 c4 -92 7 -97 52 -101 64 -5 46 -23 -22 -23 l-63
0 -3 79 c-3 87 1 110 21 104 7 -3 13 -26 15 -59z m262 26 c19 -34 50 -122 50
-142 0 -20 -24 -16 -38 7 -15 24 -82 29 -82 6 0 -17 -30 -30 -42 -18 -6 6 -1
27 11 53 12 23 21 47 21 51 0 5 7 25 15 44 18 43 41 42 65 -1z m250 15 c24
-24 25 -43 4 -80 -16 -26 -16 -29 0 -51 21 -30 20 -39 -3 -39 -11 0 -28 15
-41 35 -28 46 -58 47 -62 3 -2 -25 -8 -33 -23 -33 -18 0 -20 8 -23 70 -5 111
-2 115 68 115 47 0 64 -4 80 -20z m220 0 c19 -14 22 -22 14 -30 -9 -9 -17 -9
-33 0 -39 20 -74 9 -85 -28 -17 -62 20 -98 78 -76 23 9 20 34 -4 34 -11 0 -20
5 -20 11 0 6 17 9 43 7 33 -2 43 -7 45 -23 5 -34 -41 -68 -92 -69 -64 -1 -96
30 -96 95 0 40 4 51 31 73 37 31 83 34 119 6z m230 5 c0 -13 -33 -21 -64 -16
-21 4 -46 -12 -46 -29 0 -15 9 -19 47 -22 64 -4 69 -26 6 -30 -40 -3 -48 -6
-48 -23 0 -21 4 -22 78 -24 26 -1 37 -6 37 -16 0 -12 -15 -15 -75 -15 l-75 0
0 95 0 95 70 0 c56 0 70 -3 70 -15z m185 -5 c26 -29 6 -48 -28 -26 -25 17 -57
12 -57 -8 0 -7 19 -19 43 -26 55 -18 67 -28 67 -55 0 -44 -63 -75 -113 -56
-27 11 -45 36 -33 48 3 4 17 1 30 -6 29 -16 71 -11 71 9 0 9 -17 20 -39 28
-52 17 -66 29 -66 58 0 49 89 73 125 34z m215 6 c0 -8 -11 -17 -25 -20 -22 -6
-24 -11 -27 -79 -3 -64 -5 -72 -23 -72 -18 0 -20 8 -23 72 -3 68 -5 73 -27 79
-25 6 -31 15 -18 27 3 4 37 7 75 7 51 0 68 -3 68 -14z m256 -3 c7 -10 14 -25
14 -34 0 -9 11 -42 25 -73 23 -51 23 -57 8 -63 -11 -4 -22 1 -31 15 -20 30
-81 31 -89 2 -5 -19 -23 -26 -35 -15 -5 6 18 87 44 153 14 36 43 43 64 15z
m188 -45 c17 -32 34 -58 38 -58 4 0 8 26 10 57 2 31 8 58 14 60 14 5 21 -59
16 -136 -3 -42 -7 -51 -23 -51 -19 0 -78 81 -80 110 -1 32 -18 -26 -18 -67 -1
-31 -5 -43 -16 -43 -12 0 -15 17 -15 96 0 92 1 95 21 92 15 -2 32 -22 53 -60z
m176 -34 c0 -86 -2 -95 -17 -92 -15 3 -19 16 -21 73 -4 82 3 115 23 115 12 0
15 -18 15 -96z m129 46 c28 -79 33 -80 51 -15 14 52 20 60 41 60 24 0 24 -2
24 -87 0 -102 -17 -120 -25 -26 l-5 63 -21 -65 c-26 -83 -47 -90 -67 -23 -15
49 -23 46 -29 -11 -2 -16 -9 -31 -15 -34 -10 -3 -13 20 -13 93 0 93 1 96 22
93 15 -2 26 -16 37 -48z m319 33 c2 -9 -8 -13 -31 -13 -48 0 -67 -9 -67 -31 0
-15 7 -19 38 -19 43 0 76 -15 52 -24 -8 -3 -31 -7 -50 -8 -27 -2 -35 -7 -35
-23 0 -17 8 -20 53 -23 81 -5 62 -26 -26 -30 l-72 -3 0 96 0 96 67 -3 c42 -2
68 -8 71 -15z m307 6 c11 -16 -2 -23 -48 -23 -36 -1 -42 -4 -45 -23 -3 -21 1
-23 37 -23 30 0 41 -4 41 -15 0 -11 -11 -15 -41 -15 -36 0 -40 -2 -37 -22 3
-20 10 -23 51 -26 32 -2 47 -7 44 -15 -2 -8 -28 -12 -73 -12 l-69 0 -3 79 c-2
44 -1 85 2 93 7 16 131 18 141 2z m83 -1 c5 -7 17 -35 24 -62 8 -28 19 -51 24
-53 6 -2 17 22 25 53 13 52 39 87 54 73 3 -4 -8 -46 -25 -95 -16 -49 -30 -90
-30 -91 0 -2 -9 -3 -20 -3 -14 0 -26 13 -39 43 -18 38 -51 131 -51 142 0 10
28 4 38 -7z m326 -3 c6 -16 4 -17 -64 -19 -38 -1 -45 -4 -48 -23 -3 -20 2 -22
44 -25 67 -4 71 -28 5 -28 -44 0 -51 -3 -51 -20 0 -21 17 -27 80 -32 64 -5 31
-23 -42 -23 l-73 0 -3 70 c-5 113 -4 115 77 115 52 0 70 -4 75 -15z m120 -25
c14 -22 26 -43 26 -48 0 -5 9 -17 20 -27 20 -18 20 -17 20 43 0 36 4 62 10 62
7 0 10 -32 8 -87 -3 -83 -4 -88 -25 -91 -13 -2 -23 1 -23 7 0 6 -13 32 -30 59
-22 35 -30 42 -31 27 -1 -11 -2 -27 -3 -35 -2 -8 -3 -25 -4 -37 -1 -13 -9 -23
-17 -23 -12 0 -15 17 -15 95 0 86 2 95 19 95 10 0 30 -17 45 -40z m286 25 c0
-8 -11 -17 -25 -21 -24 -6 -25 -10 -25 -81 0 -66 -2 -74 -17 -71 -15 3 -19 16
-21 76 -3 72 -3 73 -32 79 -30 5 -36 13 -23 26 3 4 37 7 75 7 53 0 68 -3 68
-15z m185 -81 c0 -72 -3 -89 -15 -89 -12 0 -16 17 -18 79 -3 87 1 110 21 103
8 -2 12 -30 12 -93z m145 33 l35 -62 3 52 c2 29 9 57 17 63 22 18 26 -3 23
-96 -3 -72 -5 -79 -25 -82 -17 -3 -28 9 -57 60 l-35 62 -3 -59 c-2 -45 -7 -60
-18 -60 -12 0 -16 17 -18 79 -3 91 0 106 25 106 12 0 31 -23 53 -63z m380 38
c19 -20 21 -27 10 -40 -10 -12 -10 -21 0 -45 11 -25 10 -36 0 -56 -13 -23 -18
-25 -79 -22 l-66 3 -3 79 c-2 44 -1 85 2 93 4 8 23 13 59 13 44 0 58 -4 77
-25z m215 5 c0 -10 -12 -14 -45 -15 -39 0 -45 -3 -48 -22 -3 -19 2 -22 40 -25
24 -2 43 -7 43 -13 0 -5 -19 -11 -43 -13 -38 -3 -43 -6 -40 -25 2 -18 11 -23
51 -27 71 -8 57 -25 -20 -25 l-68 0 -3 79 c-2 44 -1 85 2 93 8 20 131 14 131
-7z m110 7 c7 -7 22 -32 34 -55 12 -23 26 -42 31 -42 5 0 10 24 12 53 2 38 7
52 18 52 12 0 15 -17 15 -90 0 -77 -2 -90 -17 -93 -22 -4 -40 13 -63 58 -34
67 -40 68 -45 6 -3 -31 -9 -57 -15 -59 -11 -2 -20 146 -11 170 7 17 24 17 41
0z m314 -8 c27 -26 15 -47 -17 -30 -29 15 -67 14 -81 -3 -7 -8 -13 -29 -13
-47 -1 -37 22 -59 63 -59 33 0 48 29 19 37 -34 9 -22 24 18 21 31 -3 37 -7 40
-29 4 -37 -28 -62 -82 -63 -63 -1 -96 31 -96 93 0 25 6 53 13 62 33 43 100 52
136 18z m214 -46 c36 -95 42 -123 25 -123 -7 0 -19 9 -26 20 -16 26 -60 26
-88 -1 -43 -40 -52 -9 -19 66 8 17 17 41 20 55 21 74 55 68 88 -17z m137 -13
l5 -75 43 -3 c28 -2 42 -8 42 -18 0 -11 -15 -14 -65 -14 l-65 0 0 96 c0 86 2
95 18 92 14 -3 18 -17 22 -78z"/>
<path d="M4170 9685 c0 -41 4 -55 15 -55 17 0 30 58 20 89 -3 12 -13 21 -21
21 -10 0 -14 -14 -14 -55z"/>
<path d="M4172 9463 c2 -53 6 -68 18 -68 11 0 17 15 21 50 7 54 -3 85 -27 85
-12 0 -14 -13 -12 -67z"/>
<path d="M4472 9558 c3 -137 5 -163 18 -163 13 0 15 24 15 160 0 145 -2 160
-18 163 -16 3 -17 -8 -15 -160z"/>
<path d="M5417 9655 c-10 -99 -9 -183 3 -190 18 -11 21 22 13 142 l-8 118 -8
-70z"/>
<path d="M4655 8740 c-9 -28 2 -40 36 -40 24 0 29 4 29 24 0 16 -7 26 -22 30
-34 9 -36 8 -43 -14z"/>
<path d="M4888 8752 c-20 -2 -28 -9 -28 -23 0 -15 7 -19 34 -19 19 0 37 4 40
9 10 16 -19 37 -46 33z"/>
<path d="M2138 7981 c-2 -49 -2 -95 0 -102 2 -12 51 -14 270 -13 147 1 273 2
280 3 10 1 12 25 10 99 l-3 97 -277 3 -277 2 -3 -89z"/>
<path d="M4765 6934 c-13 -9 -15 -46 -15 -232 0 -166 3 -223 13 -229 14 -9
400 -16 435 -8 l22 5 -2 233 -3 232 -217 5 c-151 3 -222 2 -233 -6z m295 -229
l0 -66 -67 3 -68 3 -3 49 c-5 73 -2 76 73 76 l65 0 0 -65z"/>
<path d="M3294 5805 c-3 -8 -3 -19 1 -25 11 -18 25 -11 25 15 0 27 -17 34 -26
10z"/>
<path d="M3502 5841 c-23 -14 -10 -46 20 -49 36 -4 58 32 29 48 -24 12 -32 12
-49 1z"/>
<path d="M4660 5823 c0 -6 -3 -18 -6 -26 -3 -8 2 -17 10 -20 22 -8 25 4 10 33
-8 14 -14 20 -14 13z"/>
<path d="M7253 5843 c-7 -2 -13 -13 -13 -24 0 -15 7 -19 30 -19 26 0 52 23 39
34 -9 8 -45 14 -56 9z"/>
<path d="M7242 5748 c2 -18 9 -23 33 -23 23 0 30 4 30 20 0 15 -8 21 -33 23
-30 3 -33 1 -30 -20z"/>
<path d="M8135 5810 c-7 -23 2 -43 16 -35 12 8 12 42 0 50 -5 3 -12 -4 -16
-15z"/>
</g>
</svg>
